# xmcd CD database file
#
# Track frame offsets:
#	150
#	29576
#	59166
#	95081
#	181199
#	204268
#
# Disc length: 2920 seconds
#
# Revision: 0
# Processed by: cddbd v1.5.2PL0 Copyright (c) Steve Scherf et al.
# Submitted via: CDex 1.70beta3
#
DISCID=530b6606
DTITLE=The Loui Belogenis Trio - Tiresias
DYEAR=2008
DGENRE=Jazz
TTITLE0=When Darkness Fell
TTITLE1=Blind Prophecy
TTITLE2=Divination
TTITLE3=Tiresias
TTITLE4=Alabama
TTITLE5=Seven Lives
EXTD=YEAR: 2008
EXTT0=
EXTT1=
EXTT2=
EXTT3=
EXTT4=
EXTT5=
PLAYORDER=
